<svg width="16" height="15" viewBox="0 0 16 15" fill="none" xmlns="http://www.w3.org/2000/svg">
<g id="status=default, style=line, color=n200">
<path id="icon / favorite" opacity="0.8" d="M7.45074 11.8173L7.44979 11.8165C5.71954 10.3737 4.33819 9.21859 3.38183 8.1426C2.43038 7.07214 1.9835 6.17045 1.9835 5.24693C1.9835 3.76245 3.25266 2.525 5.00016 2.525C5.98304 2.525 6.9233 2.94902 7.52497 3.5937L8.00016 4.10286L8.47536 3.5937C9.07703 2.94902 10.0173 2.525 11.0002 2.525C12.7477 2.525 14.0168 3.76245 14.0168 5.24693C14.0168 6.17045 13.5699 7.07214 12.6185 8.1426C11.6621 9.21859 10.2808 10.3737 8.55054 11.8165L8.54958 11.8173L8.00016 12.2773L7.45074 11.8173Z" stroke="#A0ACB1" fill="none" stroke-width="1.3"/>
</g>
</svg>
