<svg width="48" height="48" viewBox="0 0 48 48" fill="none" xmlns="http://www.w3.org/2000/svg">
<g clip-path="url(#clip0_4273_8184)">
<rect width="48" height="48" rx="24" fill="url(#paint0_linear_4273_8184)"/>
<path d="M16.7162 15.5473C16.0882 14.6313 17.4093 14.8884 17.9932 14.8517C19.665 14.8517 22.994 14.8517 23.2607 14.8517C25.6466 14.8041 28.062 15.867 28.984 18.2196C29.9627 20.6456 29.278 23.9249 27.0076 25.2773C25.1951 26.4805 22.639 26.3963 22.1959 26.3963C21.948 26.3963 20.2699 26.3768 20.2699 26.3768C20.2699 26.3768 20.3224 33.1429 20.2384 33.5209C20.1733 33.6441 20.0242 33.7132 19.9044 33.6959C19.2239 33.6959 18.1402 33.6959 17.466 33.6959C17.1132 33.6808 16.4432 33.8169 16.6196 33.2876C16.8653 32.5121 16.6742 20.1185 16.7414 15.5948L16.7162 15.5473ZM20.2699 24.0783C20.2699 24.0783 21.549 24.1021 21.9732 24.0999C23.0129 24.0956 24.6322 23.8147 25.4744 22.7389C26.3607 21.6048 26.2683 20.0537 25.34 19.0621C24.4285 18.1915 23.2565 18.144 21.9732 18.1137C21.2948 18.0964 20.6773 18.1137 20.2825 18.1137L20.2678 24.0783H20.2699Z" fill="white"/>
<path d="M31.0357 33.695C30.7416 33.6799 28.1226 33.7058 27.4043 33.695C27.2131 33.695 27.1396 33.7166 27.022 33.5611C25.3103 29.4047 22.5484 26.8771 22.7437 26.9203C25.6211 26.808 27.2593 27.0348 28.885 29.8605C29.4982 30.7829 30.1199 32.6192 31.0861 32.9173C31.5838 33.0707 31.5649 33.6129 31.0693 33.6929L31.0378 33.6972L31.0357 33.695Z" fill="white"/>
<path d="M31.872 11.4238C31.872 11.4238 31.6452 14.1804 28.667 14.4612C28.667 14.4612 31.3932 14.6124 31.872 17.4554C32.3509 14.6124 35.0771 14.4612 35.0771 14.4612C32.0989 14.1782 31.872 11.4238 31.872 11.4238Z" fill="white"/>
</g>
<defs>
<linearGradient id="paint0_linear_4273_8184" x1="16.8421" y1="15.5789" x2="62.3158" y2="68.2105" gradientUnits="userSpaceOnUse">
<stop stop-color="#F52E36"/>
<stop offset="1" stop-color="#570BE5"/>
</linearGradient>
<clipPath id="clip0_4273_8184">
<rect width="48" height="48" rx="24" fill="white"/>
</clipPath>
</defs>
</svg>
