<svg width="20" height="20" viewBox="0 0 20 20" fill="none" xmlns="http://www.w3.org/2000/svg">
<g clip-path="url(#clip0_4033_7495)">
<rect width="20" height="20" rx="10" fill="#DDDDDD"/>
<rect width="20" height="20" rx="10" fill="#C4C4C4"/>
<rect x="-7.06116" y="-0.631104" width="33.284" height="22.1893" fill="#E2E2E2"/>
<g clip-path="url(#clip1_4033_7495)">
<path d="M16.4256 -0.285645H3.57439C1.60031 -0.285645 0 1.36039 0 3.39087V16.6093C0 18.6397 1.60031 20.2858 3.57439 20.2858H16.4256C18.3997 20.2858 20 18.6397 20 16.6093V3.39087C20 1.36039 18.3997 -0.285645 16.4256 -0.285645Z" fill="#E50B14"/>
<path d="M6.5208 5.95244C6.21939 5.5128 6.85347 5.63619 7.13371 5.61856C7.93613 5.61856 9.53393 5.61856 9.66195 5.61856C10.8071 5.59575 11.9664 6.1059 12.4089 7.23505C12.8787 8.39946 12.5501 9.97343 11.4603 10.6225C10.5904 11.2001 9.36356 11.1596 9.15086 11.1596C9.03191 11.1596 8.22646 11.1503 8.22646 11.1503C8.22646 11.1503 8.25166 14.3978 8.21134 14.5792C8.18009 14.6383 8.10851 14.6715 8.05105 14.6632C7.72444 14.6632 7.20427 14.6632 6.88068 14.6632C6.71133 14.6559 6.38975 14.7213 6.47443 14.4672C6.59238 14.095 6.50064 8.14646 6.5329 5.97525L6.5208 5.95244ZM8.22646 10.047C8.22646 10.047 8.84037 10.0585 9.044 10.0574C9.543 10.0553 10.3202 9.92055 10.7245 9.40419C11.1499 8.85983 11.1055 8.11535 10.6599 7.63943C10.2224 7.22157 9.65993 7.19876 9.044 7.18424C8.7184 7.17595 8.42202 7.18424 8.23251 7.18424L8.22545 10.047H8.22646Z" fill="white"/>
<path d="M13.3938 14.6623C13.2526 14.655 11.9956 14.6675 11.6508 14.6623C11.5591 14.6623 11.5238 14.6727 11.4673 14.598C10.6458 12.6031 9.32015 11.3899 9.4139 11.4107C10.795 11.3567 11.5812 11.4656 12.3615 12.8218C12.6559 13.2646 12.9542 14.1459 13.418 14.289C13.6569 14.3626 13.6478 14.6229 13.4099 14.6612L13.3948 14.6633L13.3938 14.6623Z" fill="white"/>
<path d="M13.795 3.97314C13.795 3.97314 13.6862 5.29619 12.2567 5.43099C12.2567 5.43099 13.5652 5.50357 13.795 6.86809C14.0249 5.50357 15.3333 5.43099 15.3333 5.43099C13.9039 5.29516 13.795 3.97314 13.795 3.97314Z" fill="white"/>
</g>
</g>
<defs>
<clipPath id="clip0_4033_7495">
<rect width="20" height="20" rx="10" fill="white"/>
</clipPath>
<clipPath id="clip1_4033_7495">
<rect width="20" height="20.5714" fill="white" transform="translate(0 -0.285645)"/>
</clipPath>
</defs>
</svg>
