<svg width="36" height="36" viewBox="0 0 36 36" fill="none" xmlns="http://www.w3.org/2000/svg">
<rect x="12" y="10.5" width="13.5" height="13.5" fill="white"/>
<path fill-rule="evenodd" clip-rule="evenodd" d="M24.2864 7.70074C24.063 7.34374 23.7338 7.06528 23.3447 6.90413C22.9556 6.74297 22.526 6.70714 22.1156 6.80161L19.2027 7.47069C18.9042 7.5393 18.594 7.5393 18.2955 7.47069L15.3826 6.80161C14.9722 6.70714 14.5425 6.74297 14.1534 6.90413C13.7643 7.06528 13.4352 7.34374 13.2117 7.70074L11.6241 10.2345C11.4621 10.4937 11.2434 10.7124 10.9842 10.876L8.45041 12.4637C8.09403 12.6869 7.81598 13.0156 7.65486 13.404C7.49374 13.7924 7.45754 14.2214 7.55128 14.6313L8.22037 17.5474C8.28873 17.8454 8.28873 18.155 8.22037 18.453L7.55128 21.3675C7.45718 21.7777 7.49319 22.207 7.65433 22.5958C7.81547 22.9845 8.09372 23.3134 8.45041 23.5368L10.9842 25.1244C11.2434 25.2864 11.4621 25.5051 11.6257 25.7643L13.2134 28.2981C13.6702 29.0287 14.5418 29.39 15.3826 29.1972L18.2955 28.5281C18.594 28.4595 18.9042 28.4595 19.2027 28.5281L22.1172 29.1972C22.5274 29.2913 22.9567 29.2553 23.3454 29.0942C23.7342 28.933 24.0631 28.6548 24.2864 28.2981L25.8741 25.7643C26.0361 25.5051 26.2548 25.2864 26.514 25.1244L29.0494 23.5368C29.4061 23.3131 29.6842 22.9838 29.8451 22.5948C30.0059 22.2057 30.0415 21.7761 29.9469 21.3659L29.2794 18.453C29.2108 18.1545 29.2108 17.8443 29.2794 17.5458L29.9485 14.6313C30.0428 14.2213 30.007 13.7921 29.8462 13.4034C29.6853 13.0146 29.4074 12.6856 29.051 12.4621L26.5156 10.8744C26.2568 10.7121 26.038 10.4934 25.8757 10.2345L24.2864 7.70074ZM23.4715 14.3867C23.5717 14.2024 23.5966 13.9865 23.5408 13.7843C23.485 13.5821 23.353 13.4095 23.1725 13.3026C22.992 13.1958 22.7771 13.1631 22.573 13.2115C22.369 13.2599 22.1916 13.3856 22.0783 13.5621L17.8419 20.7324L15.2838 18.2829C15.2079 18.205 15.1171 18.1432 15.0168 18.1011C14.9165 18.059 14.8087 18.0376 14.7 18.0381C14.5912 18.0385 14.4836 18.0609 14.3837 18.1039C14.2838 18.1468 14.1935 18.2094 14.1183 18.288C14.0431 18.3666 13.9845 18.4595 13.946 18.5612C13.9074 18.663 13.8898 18.7714 13.8941 18.8801C13.8984 18.9888 13.9245 19.0955 13.971 19.1938C14.0174 19.2922 14.0832 19.3802 14.1643 19.4526L17.4595 22.6101C17.5477 22.6944 17.6538 22.7577 17.7699 22.7953C17.886 22.8329 18.0091 22.8437 18.13 22.8271C18.2509 22.8104 18.3664 22.7666 18.468 22.699C18.5696 22.6315 18.6546 22.5418 18.7167 22.4367L23.4715 14.3867Z" fill="#F6464E"/>
</svg>
