<svg width="24" height="24" viewBox="0 0 24 24" fill="none" xmlns="http://www.w3.org/2000/svg">
<g id="bitcoin-icons:verify-filled">
<path id="Vector" fill-rule="evenodd" clip-rule="evenodd" d="M16.191 5.13383C16.042 4.89583 15.8226 4.71019 15.5632 4.60275C15.3038 4.49531 15.0173 4.47142 14.7437 4.53441L12.8018 4.98046C12.6028 5.0262 12.396 5.0262 12.197 4.98046L10.2551 4.53441C9.98147 4.47142 9.69503 4.49531 9.43563 4.60275C9.17623 4.71019 8.95678 4.89583 8.80783 5.13383L7.7494 6.823C7.6414 6.99581 7.49559 7.14161 7.32278 7.2507L5.63361 8.30913C5.39602 8.45795 5.21065 8.67704 5.10324 8.936C4.99583 9.19495 4.97169 9.48092 5.03419 9.75422L5.48024 11.6983C5.52582 11.8969 5.52582 12.1034 5.48024 12.302L5.03419 14.245C4.97145 14.5185 4.99546 14.8047 5.10289 15.0638C5.21031 15.323 5.39582 15.5423 5.63361 15.6912L7.32278 16.7496C7.49559 16.8576 7.64139 17.0034 7.75048 17.1762L8.80891 18.8654C9.11348 19.3525 9.69454 19.5933 10.2551 19.4648L12.197 19.0188C12.396 18.973 12.6028 18.973 12.8018 19.0188L14.7448 19.4648C15.0182 19.5276 15.3044 19.5035 15.5636 19.3961C15.8228 19.2887 16.0421 19.1032 16.191 18.8654L17.2494 17.1762C17.3574 17.0034 17.5032 16.8576 17.676 16.7496L19.3663 15.6912C19.6041 15.5421 19.7895 15.3226 19.8967 15.0632C20.004 14.8038 20.0277 14.5174 19.9646 14.2439L19.5196 12.302C19.4739 12.103 19.4739 11.8962 19.5196 11.6972L19.9657 9.75422C20.0285 9.48088 20.0047 9.19475 19.8974 8.93558C19.7902 8.67642 19.6049 8.45708 19.3673 8.30805L17.6771 7.24962C17.5045 7.14141 17.3587 6.99557 17.2505 6.823L16.191 5.13383ZM15.6477 9.59113C15.7145 9.46829 15.731 9.32434 15.6939 9.18954C15.6567 9.05475 15.5687 8.93964 15.4483 8.86842C15.328 8.7972 15.1847 8.77543 15.0487 8.80769C14.9126 8.83995 14.7944 8.92373 14.7189 9.04139L11.8946 13.8216L10.1892 12.1886C10.1386 12.1367 10.0781 12.0954 10.0112 12.0674C9.94433 12.0393 9.87249 12.0251 9.79998 12.0254C9.72747 12.0257 9.65576 12.0406 9.58914 12.0692C9.52251 12.0979 9.46234 12.1396 9.4122 12.192C9.36206 12.2444 9.32299 12.3063 9.29731 12.3742C9.27163 12.442 9.25987 12.5143 9.26274 12.5867C9.2656 12.6592 9.28303 12.7303 9.31398 12.7959C9.34493 12.8615 9.38878 12.9201 9.44289 12.9684L11.6397 15.0734C11.6985 15.1296 11.7692 15.1718 11.8466 15.1969C11.924 15.2219 12.0061 15.2291 12.0867 15.218C12.1672 15.2069 12.2443 15.1778 12.312 15.1327C12.3797 15.0876 12.4364 15.0279 12.4778 14.9578L15.6477 9.59113Z" fill="#FA8F94"/>
</g>
</svg>
