<svg width="3" height="8" viewBox="0 0 3 8" fill="none" xmlns="http://www.w3.org/2000/svg">
<path id="Vector" d="M1.48092 5.86359C1.63256 5.86359 1.77799 5.92585 1.88521 6.03667C1.99243 6.14748 2.05267 6.29778 2.05267 6.4545C2.05267 6.61122 1.99243 6.76152 1.88521 6.87234C1.77799 6.98315 1.63256 7.04541 1.48092 7.04541C1.32929 7.04541 1.18386 6.98315 1.07664 6.87234C0.969417 6.76152 0.90918 6.61122 0.90918 6.4545C0.90918 6.29778 0.969417 6.14748 1.07664 6.03667C1.18386 5.92585 1.32929 5.86359 1.48092 5.86359ZM1.48092 0.54541C1.63256 0.54541 1.77799 0.607667 1.88521 0.718484C1.99243 0.8293 2.05267 0.979601 2.05267 1.13632V4.68177C2.05267 4.83849 1.99243 4.98879 1.88521 5.09961C1.77799 5.21043 1.63256 5.27268 1.48092 5.27268C1.32929 5.27268 1.18386 5.21043 1.07664 5.09961C0.969417 4.98879 0.90918 4.83849 0.90918 4.68177V1.13632C0.90918 0.979601 0.969417 0.8293 1.07664 0.718484C1.18386 0.607667 1.32929 0.54541 1.48092 0.54541Z" fill="currentColor"/>
</svg>
