<svg width="19" height="19" viewBox="0 0 19 19" fill="none" xmlns="http://www.w3.org/2000/svg">
<g clip-path="url(#clip0_5473_17873)">
<path d="M3.48696 1.78125C3.3555 1.78125 3.22097 1.83307 3.12008 1.93366C2.91831 2.13484 2.91831 2.46404 3.12008 2.66522L10.0263 9.55106L3.22097 16.3363C3.01919 16.5375 3.01919 16.8667 3.22097 17.0679C3.42274 17.269 3.75292 17.269 3.95469 17.0679L11.1299 9.91684C11.3317 9.71566 11.3317 9.38646 11.1299 9.18528L3.85687 1.93366C3.75292 1.83002 3.62148 1.78125 3.48696 1.78125Z" fill="#F3F5F7"/>
<path d="M10.612 1.78125C10.4805 1.78125 10.346 1.83307 10.2451 1.93366C10.0433 2.13484 10.0433 2.46404 10.2451 2.66522L17.1513 9.55106L10.346 16.3363C10.1442 16.5375 10.1442 16.8667 10.346 17.0679C10.5477 17.269 10.8779 17.269 11.0797 17.0679L18.2549 9.91684C18.4567 9.71566 18.4567 9.38646 18.2549 9.18528L10.9819 1.93366C10.8779 1.83002 10.7465 1.78125 10.612 1.78125Z" fill="#F3F5F7"/>
</g>
<defs>
<clipPath id="clip0_5473_17873">
<rect width="19" height="19" fill="white" transform="translate(19) rotate(90)"/>
</clipPath>
</defs>
</svg>
