<svg width="13" height="13" viewBox="0 0 13 13" fill="none" xmlns="http://www.w3.org/2000/svg">
<g filter="url(#filter0_i_5524_7243)">
<circle cx="6.5" cy="6.5" r="6.5" fill="#202020"/>
</g>
<path d="M6.48092 8.86359C6.63256 8.86359 6.77799 8.92585 6.88521 9.03667C6.99243 9.14748 7.05267 9.29778 7.05267 9.4545C7.05267 9.61122 6.99243 9.76152 6.88521 9.87234C6.77799 9.98315 6.63256 10.0454 6.48092 10.0454C6.32929 10.0454 6.18386 9.98315 6.07664 9.87234C5.96942 9.76152 5.90918 9.61122 5.90918 9.4545C5.90918 9.29778 5.96942 9.14748 6.07664 9.03667C6.18386 8.92585 6.32929 8.86359 6.48092 8.86359ZM6.48092 3.54541C6.63256 3.54541 6.77799 3.60767 6.88521 3.71848C6.99243 3.8293 7.05267 3.9796 7.05267 4.13632V7.68177C7.05267 7.83849 6.99243 7.98879 6.88521 8.09961C6.77799 8.21043 6.63256 8.27268 6.48092 8.27268C6.32929 8.27268 6.18386 8.21043 6.07664 8.09961C5.96942 7.98879 5.90918 7.83849 5.90918 7.68177V4.13632C5.90918 3.9796 5.96942 3.8293 6.07664 3.71848C6.18386 3.60767 6.32929 3.54541 6.48092 3.54541Z" fill="white"/>
<defs>
<filter id="filter0_i_5524_7243" x="0" y="0" width="13" height="13" filterUnits="userSpaceOnUse" color-interpolation-filters="sRGB">
<feFlood flood-opacity="0" result="BackgroundImageFix"/>
<feBlend mode="normal" in="SourceGraphic" in2="BackgroundImageFix" result="shape"/>
<feColorMatrix in="SourceAlpha" type="matrix" values="0 0 0 0 0 0 0 0 0 0 0 0 0 0 0 0 0 0 127 0" result="hardAlpha"/>
<feOffset/>
<feGaussianBlur stdDeviation="5"/>
<feComposite in2="hardAlpha" operator="arithmetic" k2="-1" k3="1"/>
<feColorMatrix type="matrix" values="0 0 0 0 0.12549 0 0 0 0 0.12549 0 0 0 0 0.12549 0 0 0 0.25 0"/>
<feBlend mode="normal" in2="shape" result="effect1_innerShadow_5524_7243"/>
</filter>
</defs>
</svg>
