<svg width="187" height="136" viewBox="0 0 187 136" fill="none" xmlns="http://www.w3.org/2000/svg">
<g id="Frame 4654">
<g id="Group 402">
<g id="Group 401">
<path id="Vector" d="M101.895 81.1089C101.895 81.1089 100.621 97.5616 83.8945 99.2378C83.8945 99.2378 99.2051 100.14 101.895 117.109C104.584 100.14 119.895 99.2378 119.895 99.2378C103.168 97.5487 101.895 81.1089 101.895 81.1089Z" fill="#596065"/>
<path id="Vector_2" d="M124.947 65.0034C124.947 65.0034 123.956 77.8 110.947 79.1037C110.947 79.1037 122.856 79.8057 124.947 93.0034C127.039 79.8057 138.947 79.1037 138.947 79.1037C125.938 77.79 124.947 65.0034 124.947 65.0034Z" fill="#757D82"/>
<path id="Line 26" d="M59 55H109" stroke="#B1B8BD" stroke-width="4" stroke-linecap="round"/>
<path id="Line 29" d="M59 41H109" stroke="#B1B8BD" stroke-width="4" stroke-linecap="round"/>
<path id="Line 27" d="M59 69H109" stroke="#B1B8BD" stroke-width="4" stroke-linecap="round"/>
<path id="Line 28" d="M59 83H85" stroke="#B1B8BD" stroke-width="4" stroke-linecap="round"/>
</g>
</g>
</g>
</svg>
