<svg width="24" height="24" viewBox="0 0 24 24" fill="none" xmlns="http://www.w3.org/2000/svg">
<g id="react-icons/AiOutlineSetting">
<path id="Vector" d="M21.6751 14.6649L20.1399 13.3524C20.2126 12.9071 20.2501 12.4524 20.2501 11.9978C20.2501 11.5431 20.2126 11.0884 20.1399 10.6431L21.6751 9.33057C21.7908 9.23144 21.8737 9.09942 21.9127 8.95205C21.9516 8.80468 21.9447 8.64895 21.893 8.50557L21.8719 8.44463C21.4493 7.26344 20.8165 6.16846 20.004 5.2126L19.9618 5.16338C19.8632 5.04749 19.7318 4.96418 19.585 4.92443C19.4381 4.88468 19.2827 4.89036 19.1391 4.94072L17.2336 5.61807C16.5305 5.0415 15.7454 4.58682 14.8969 4.26807L14.529 2.27588C14.5012 2.12598 14.4285 1.98807 14.3205 1.88048C14.2125 1.77289 14.0743 1.70071 13.9243 1.67354L13.861 1.66182C12.6399 1.4415 11.3555 1.4415 10.1344 1.66182L10.0711 1.67354C9.92114 1.70071 9.78295 1.77289 9.67494 1.88048C9.56694 1.98807 9.49422 2.12598 9.46646 2.27588L9.09615 4.27744C8.25448 4.59626 7.47068 5.0507 6.77584 5.62275L4.8563 4.94072C4.71279 4.88996 4.55722 4.88408 4.41028 4.92385C4.26333 4.96362 4.13197 5.04716 4.03365 5.16338L3.99146 5.2126C3.17993 6.16914 2.54718 7.26393 2.12349 8.44463L2.1024 8.50557C1.99693 8.79853 2.08365 9.12666 2.32037 9.33057L3.87427 10.6571C3.80162 11.0978 3.76646 11.5478 3.76646 11.9954C3.76646 12.4454 3.80162 12.8954 3.87427 13.3337L2.32037 14.6603C2.20457 14.7594 2.1217 14.8914 2.08277 15.0388C2.04383 15.1861 2.05068 15.3419 2.1024 15.4853L2.12349 15.5462C2.54771 16.7274 3.17583 17.8173 3.99146 18.7782L4.03365 18.8274C4.13221 18.9433 4.26358 19.0266 4.41043 19.0664C4.55729 19.1061 4.71274 19.1005 4.8563 19.0501L6.77584 18.3681C7.47427 18.9423 8.25474 19.397 9.09615 19.7134L9.46646 21.7149C9.49422 21.8648 9.56694 22.0027 9.67494 22.1103C9.78295 22.2179 9.92114 22.2901 10.0711 22.3173L10.1344 22.329C11.3667 22.5505 12.6287 22.5505 13.861 22.329L13.9243 22.3173C14.0743 22.2901 14.2125 22.2179 14.3205 22.1103C14.4285 22.0027 14.5012 21.8648 14.529 21.7149L14.8969 19.7228C15.745 19.4048 16.5346 18.9487 17.2336 18.3728L19.1391 19.0501C19.2826 19.1009 19.4382 19.1067 19.5851 19.067C19.7321 19.0272 19.8634 18.9437 19.9618 18.8274L20.004 18.7782C20.8196 17.8149 21.4477 16.7274 21.8719 15.5462L21.893 15.4853C21.9985 15.197 21.9118 14.8688 21.6751 14.6649ZM18.4758 10.9196C18.5344 11.2735 18.5649 11.6368 18.5649 12.0001C18.5649 12.3634 18.5344 12.7267 18.4758 13.0806L18.3211 14.0204L20.0719 15.5181C19.8065 16.1295 19.4715 16.7083 19.0735 17.2431L16.8985 16.472L16.1626 17.0767C15.6024 17.536 14.979 17.897 14.304 18.1501L13.411 18.4853L12.9915 20.7587C12.3295 20.8337 11.6612 20.8337 10.9993 20.7587L10.5797 18.4806L9.6938 18.1407C9.02584 17.8876 8.40474 17.5267 7.84927 17.0696L7.11334 16.4626L4.92427 17.2407C4.52584 16.704 4.19302 16.1251 3.92583 15.5157L5.69537 14.004L5.54302 13.0665C5.48677 12.7173 5.4563 12.3563 5.4563 12.0001C5.4563 11.6415 5.48443 11.2829 5.54302 10.9337L5.69537 9.99619L3.92583 8.48447C4.19068 7.87275 4.52584 7.29619 4.92427 6.75947L7.11334 7.5376L7.84927 6.93057C8.40474 6.47354 9.02584 6.1126 9.6938 5.85947L10.5821 5.52432L11.0016 3.24619C11.6602 3.17119 12.3329 3.17119 12.9938 3.24619L13.4133 5.51963L14.3063 5.85478C14.979 6.10791 15.6047 6.46885 16.1649 6.92822L16.9008 7.53291L19.0758 6.76182C19.4743 7.29853 19.8071 7.87744 20.0743 8.48682L18.3235 9.98447L18.4758 10.9196ZM12.0001 7.64072C9.72193 7.64072 7.87505 9.4876 7.87505 11.7657C7.87505 14.0438 9.72193 15.8907 12.0001 15.8907C14.2782 15.8907 16.1251 14.0438 16.1251 11.7657C16.1251 9.4876 14.2782 7.64072 12.0001 7.64072ZM13.8563 13.622C13.6128 13.8661 13.3235 14.0598 13.0049 14.1917C12.6864 14.3236 12.3449 14.3913 12.0001 14.3907C11.2993 14.3907 10.6407 14.1165 10.1438 13.622C9.89964 13.3785 9.70602 13.0892 9.57409 12.7706C9.44216 12.452 9.37452 12.1105 9.37505 11.7657C9.37505 11.0649 9.64927 10.4063 10.1438 9.90947C10.6407 9.4126 11.2993 9.14072 12.0001 9.14072C12.7008 9.14072 13.3594 9.4126 13.8563 9.90947C14.1005 10.1529 14.2941 10.4423 14.426 10.7608C14.5579 11.0794 14.6256 11.4209 14.6251 11.7657C14.6251 12.4665 14.3508 13.1251 13.8563 13.622Z" fill="#202020"/>
</g>
</svg>
