<svg width="25" height="24" viewBox="0 0 25 24" fill="none" xmlns="http://www.w3.org/2000/svg">
<path d="M15.8536 3.5H5.97128C5.06292 3.5 4.32422 4.23871 4.32422 5.14706V15.0294C4.32422 15.9378 5.06292 16.6765 5.97128 16.6765H15.8536C16.762 16.6765 17.5007 15.9378 17.5007 15.0294V5.14706C17.5007 4.23871 16.762 3.5 15.8536 3.5ZM5.97128 15.0294V5.14706H15.8536L15.8553 15.0294H5.97128Z" fill="#212529"/>
<path d="M3.11345 9.14746H1.5V18.0214C1.5 18.8371 2.22363 19.5004 3.11345 19.5004H12.7941V18.0214H3.11345V9.14746Z" fill="#212529"/>
<path d="M9.40531 12.2847L8.65237 11.5004L7.14648 13.8533H14.6759L11.6641 9.14746L9.40531 12.2847Z" fill="#212529"/>
<path d="M17.5 13C15.2911 13 13.5 14.7911 13.5 17C13.5 19.2089 15.2911 21 17.5 21C19.7089 21 21.5 19.2089 21.5 17C21.5 14.7911 19.7089 13 17.5 13ZM19.2143 17.2143C19.2143 17.2536 19.1821 17.2857 19.1429 17.2857H17.7857V18.6429C17.7857 18.6821 17.7536 18.7143 17.7143 18.7143H17.2857C17.2464 18.7143 17.2143 18.6821 17.2143 18.6429V17.2857H15.8571C15.8179 17.2857 15.7857 17.2536 15.7857 17.2143V16.7857C15.7857 16.7464 15.8179 16.7143 15.8571 16.7143H17.2143V15.3571C17.2143 15.3179 17.2464 15.2857 17.2857 15.2857H17.7143C17.7536 15.2857 17.7857 15.3179 17.7857 15.3571V16.7143H19.1429C19.1821 16.7143 19.2143 16.7464 19.2143 16.7857V17.2143Z" fill="#212529"/>
</svg>
