<svg width="17" height="18" viewBox="0 0 17 18" fill="none" xmlns="http://www.w3.org/2000/svg">
<path d="M7.50833 11.975L12.5021 6.98125L11.5104 5.98958L7.50833 9.99167L5.48958 7.97292L4.49792 8.96458L7.50833 11.975ZM3.54167 15.375C3.15208 15.375 2.81858 15.2363 2.54115 14.9589C2.26372 14.6814 2.125 14.3479 2.125 13.9583V4.04167C2.125 3.65208 2.26372 3.31858 2.54115 3.04115C2.81858 2.76372 3.15208 2.625 3.54167 2.625H13.4583C13.8479 2.625 14.1814 2.76372 14.4589 3.04115C14.7363 3.31858 14.875 3.65208 14.875 4.04167V13.9583C14.875 14.3479 14.7363 14.6814 14.4589 14.9589C14.1814 15.2363 13.8479 15.375 13.4583 15.375H3.54167Z" fill="currentColor"/>
</svg>
