<svg width="27" height="27" viewBox="0 0 27 27" fill="none" xmlns="http://www.w3.org/2000/svg">
<g clip-path="url(#clip0_888_10645)">
<path d="M22.1746 0H4.82543C2.16042 0 0 2.16042 0 4.82543V22.1746C0 24.8396 2.16042 27 4.82543 27H22.1746C24.8396 27 27 24.8396 27 22.1746V4.82543C27 2.16042 24.8396 0 22.1746 0Z" fill="#E50B14"/>
<path d="M7.23339 7.01066C6.7181 6.27995 7.8021 6.48503 8.2812 6.45573C9.653 6.45573 12.3845 6.45573 12.6034 6.45573C14.5611 6.41782 16.543 7.26571 17.2996 9.14246C18.1027 11.0778 17.5409 13.6939 15.6779 14.7727C14.1906 15.7326 12.0933 15.6654 11.7297 15.6654C11.5263 15.6654 10.1493 15.6499 10.1493 15.6499C10.1493 15.6499 10.1924 21.0475 10.1235 21.3491C10.0701 21.4473 9.94769 21.5025 9.84946 21.4887C9.29109 21.4887 8.40183 21.4887 7.84863 21.4887C7.55911 21.4766 7.00935 21.5852 7.15412 21.163C7.35575 20.5443 7.19892 10.6573 7.25407 7.04857L7.23339 7.01066ZM10.1493 13.8162C10.1493 13.8162 11.1989 13.8352 11.547 13.8335C12.4 13.83 13.7288 13.606 14.4198 12.7477C15.1471 11.843 15.0713 10.6056 14.3095 9.81457C13.5616 9.12006 12.6 9.08214 11.547 9.05802C10.9903 9.04423 10.4837 9.05802 10.1597 9.05802L10.1476 13.8162H10.1493Z" fill="white"/>
<path d="M18.9828 21.4874C18.7415 21.4753 16.5925 21.496 16.0031 21.4874C15.8463 21.4874 15.786 21.5046 15.6895 21.3805C14.2849 18.0648 12.0187 16.0484 12.179 16.0829C14.54 15.9933 15.8842 16.1742 17.2181 18.4284C17.7213 19.1643 18.2314 20.6291 19.0242 20.867C19.4326 20.9893 19.4171 21.4219 19.0104 21.4856L18.9845 21.4891L18.9828 21.4874Z" fill="white"/>
<path d="M19.6689 3.7207C19.6689 3.7207 19.4828 5.91972 17.0391 6.14376C17.0391 6.14376 19.276 6.26439 19.6689 8.53235C20.0618 6.26439 22.2988 6.14376 22.2988 6.14376C19.855 5.918 19.6689 3.7207 19.6689 3.7207Z" fill="white"/>
</g>
<defs>
<clipPath id="clip0_888_10645">
<rect width="27" height="27" fill="white"/>
</clipPath>
</defs>
</svg>
